<svg xmlns="http://www.w3.org/2000/svg" viewBox="0 0 1600 900" role="img" aria-label="AI 与地学智能应用示意图">
  <defs>
    <linearGradient id="bg" x1="0" x2="1" y1="0" y2="1">
      <stop offset="0" stop-color="#eef8f7"/>
      <stop offset="1" stop-color="#dcecf0"/>
    </linearGradient>
    <linearGradient id="map" x1="0" x2="1" y1="0" y2="1">
      <stop offset="0" stop-color="#8cc9c7"/>
      <stop offset=".55" stop-color="#4f9aa2"/>
      <stop offset="1" stop-color="#1e5464"/>
    </linearGradient>
    <linearGradient id="section" x1="0" x2="1" y1="0" y2="0">
      <stop offset="0" stop-color="#173946"/>
      <stop offset=".55" stop-color="#245f67"/>
      <stop offset="1" stop-color="#14303a"/>
    </linearGradient>
    <filter id="softShadow" x="-20%" y="-20%" width="140%" height="140%">
      <feDropShadow dx="0" dy="18" stdDeviation="22" flood-color="#173946" flood-opacity=".16"/>
    </filter>
  </defs>

  <rect width="1600" height="900" rx="34" fill="url(#bg)"/>

  <g opacity=".42" stroke="#b6d5d7" stroke-width="1">
    <path d="M0 120H1600M0 240H1600M0 360H1600M0 480H1600M0 600H1600M0 720H1600"/>
    <path d="M160 0V900M320 0V900M480 0V900M640 0V900M800 0V900M960 0V900M1120 0V900M1280 0V900M1440 0V900"/>
  </g>

  <g filter="url(#softShadow)">
    <rect x="130" y="120" width="570" height="360" rx="22" fill="#ffffff" opacity=".92"/>
    <rect x="170" y="160" width="490" height="280" rx="14" fill="url(#map)"/>
    <path d="M180 370C260 320 330 350 420 286C506 224 590 252 656 198" fill="none" stroke="#e7fbff" stroke-width="7" opacity=".82"/>
    <path d="M170 276C252 238 350 270 430 222C512 174 590 184 660 146" fill="none" stroke="#f4fbfb" stroke-width="3" opacity=".6"/>
    <path d="M170 410L660 188V440H170Z" fill="#143d48" opacity=".2"/>
    <g fill="#f8fbfc" opacity=".78">
      <circle cx="250" cy="250" r="8"/>
      <circle cx="394" cy="306" r="8"/>
      <circle cx="536" cy="224" r="8"/>
      <circle cx="610" cy="348" r="8"/>
    </g>
    <g stroke="#f8fbfc" stroke-width="2.5" opacity=".55">
      <path d="M250 250L394 306L536 224L610 348"/>
      <path d="M394 306L610 348"/>
    </g>
  </g>

  <g filter="url(#softShadow)">
    <rect x="820" y="120" width="650" height="360" rx="22" fill="#ffffff" opacity=".92"/>
    <rect x="860" y="170" width="570" height="250" rx="14" fill="url(#section)"/>
    <path d="M860 246C965 214 1042 248 1142 214C1244 178 1320 216 1430 170" fill="none" stroke="#e8f4f2" stroke-width="10" opacity=".9"/>
    <path d="M860 294C978 254 1062 294 1164 258C1266 222 1340 258 1430 226" fill="none" stroke="#c9e1dc" stroke-width="6" opacity=".86"/>
    <path d="M860 340C982 304 1074 344 1170 306C1276 264 1352 310 1430 274" fill="none" stroke="#b8842f" stroke-width="7" opacity=".9"/>
    <path d="M860 386C982 350 1080 386 1188 350C1292 316 1368 354 1430 322" fill="none" stroke="#efe1bf" stroke-width="4" opacity=".8"/>
    <g stroke="#b8842f" stroke-width="5" opacity=".78">
      <path d="M1188 340V420"/>
      <path d="M1222 322V420"/>
      <path d="M1256 334V420"/>
      <path d="M1290 306V420"/>
    </g>
  </g>

  <g>
    <rect x="520" y="552" width="560" height="170" rx="26" fill="#ffffff" opacity=".94" filter="url(#softShadow)"/>
    <text x="800" y="622" text-anchor="middle" font-family="Arial, sans-serif" font-size="34" font-weight="800" fill="#173946">AI Model</text>
    <text x="800" y="666" text-anchor="middle" font-family="Arial, sans-serif" font-size="22" fill="#607174">Remote sensing · Geology · Prediction</text>
    <g fill="#1f6f65">
      <circle cx="610" cy="636" r="13"/>
      <circle cx="700" cy="596" r="13"/>
      <circle cx="700" cy="680" r="13"/>
      <circle cx="900" cy="596" r="13"/>
      <circle cx="900" cy="680" r="13"/>
      <circle cx="990" cy="636" r="13"/>
    </g>
    <g stroke="#7fbfca" stroke-width="3" opacity=".8">
      <path d="M623 636L687 596M623 636L687 680"/>
      <path d="M713 596L887 596M713 596L887 680M713 680L887 596M713 680L887 680"/>
      <path d="M913 596L977 636M913 680L977 636"/>
    </g>
  </g>

  <g fill="none" stroke="#2f7fb8" stroke-width="3" opacity=".42">
    <path d="M700 300C760 330 790 430 800 552"/>
    <path d="M900 300C840 340 810 430 800 552"/>
    <path d="M800 722C770 770 648 788 420 742"/>
    <path d="M800 722C860 770 1038 790 1260 742"/>
  </g>
</svg>
